<svg width="52" height="52" viewBox="0 0 52 52" fill="none" xmlns="http://www.w3.org/2000/svg">
<circle cx="26" cy="26" r="25" fill="white" stroke="#ADB5BD" stroke-opacity="0.8"/>
<path d="M37.745 26.27C37.745 25.48 37.675 24.73 37.555 24H26.255V28.51H32.725C32.435 29.99 31.585 31.24 30.325 32.09V35.09H34.185C36.445 33 37.745 29.92 37.745 26.27Z" fill="#4285F4"/>
<path d="M26.255 38C29.495 38 32.205 36.92 34.185 35.09L30.325 32.09C29.245 32.81 27.875 33.25 26.255 33.25C23.125 33.25 20.475 31.14 19.525 28.29H15.545V31.38C17.515 35.3 21.565 38 26.255 38Z" fill="#34A853"/>
<path d="M19.525 28.29C19.275 27.57 19.145 26.8 19.145 26C19.145 25.2 19.285 24.43 19.525 23.71V20.62H15.545C14.725 22.24 14.255 24.06 14.255 26C14.255 27.94 14.725 29.76 15.545 31.38L19.525 28.29Z" fill="#FBBC05"/>
<path d="M26.255 18.75C28.025 18.75 29.605 19.36 30.855 20.55L34.275 17.13C32.205 15.19 29.495 14 26.255 14C21.565 14 17.515 16.7 15.545 20.62L19.525 23.71C20.475 20.86 23.125 18.75 26.255 18.75Z" fill="#EA4335"/>
</svg>
