<svg width="50" height="50" viewBox="0 0 50 50" fill="none" xmlns="http://www.w3.org/2000/svg">
<circle cx="25" cy="25" r="25" fill="#FEE500"/>
<g clip-path="url(#clip0_3_120)">
<path d="M24.8106 15.217C18.9606 15.217 14.217 18.9624 14.217 23.5852C14.217 26.5546 16.1817 29.1617 19.1322 30.6498L18.134 34.3758C18.0958 34.4902 18.1275 34.6113 18.2104 34.6938C18.2675 34.7513 18.3437 34.783 18.4264 34.783C18.4902 34.783 18.5536 34.7576 18.6109 34.7131L22.9029 31.8134C23.5263 31.9023 24.1622 31.9531 24.8106 31.9531C30.6606 31.9531 35.4045 28.208 35.4045 23.5852C35.4045 18.9624 30.6606 15.217 24.8106 15.217Z" fill="#3C1E1E"/>
</g>
<defs>
<clipPath id="clip0_3_120">
<rect width="21.6215" height="20" fill="white" transform="translate(14 15)"/>
</clipPath>
</defs>
</svg>
