<svg width="472" height="82" viewBox="0 0 472 82" fill="none" xmlns="http://www.w3.org/2000/svg">
<path d="M0.691406 80V2.75391H23.6406C35.2943 2.75391 44.2786 6.07422 50.5938 12.7148C56.9089 19.3555 60.0664 28.8932 60.0664 41.3281C60.0664 45.5599 59.6758 49.5312 58.8945 53.2422C58.1133 56.888 56.8112 60.3711 54.9883 63.6914C53.2305 67.0117 50.9844 69.8763 48.25 72.2852C45.5156 74.6289 42.0326 76.5169 37.8008 77.9492C33.6341 79.3164 28.8815 80 23.543 80H0.691406ZM13.582 69.1602H22.0781C38.4844 69.1602 46.6875 59.8828 46.6875 41.3281C46.6875 31.4323 44.5391 24.3685 40.2422 20.1367C35.9453 15.8398 29.9557 13.6914 22.2734 13.6914H13.582V69.1602ZM70.7109 80V23.6523H82.625V29.707C83.862 27.6237 85.6198 25.8008 87.8984 24.2383C90.2422 22.6758 93.0091 21.8945 96.1992 21.8945C99.194 21.8945 101.635 22.3177 103.523 23.1641V34.3945C101.049 33.6133 98.6081 33.2227 96.1992 33.2227C91.9674 33.2227 88.7122 34.8828 86.4336 38.2031C84.2201 41.4583 83.1133 45.8203 83.1133 51.2891V80H70.7109ZM113.582 80V64.9609H129.988V80H113.582ZM148.934 80V2.75391H161.727V34.8828H192.977V2.75391H205.77V80H192.977V45.7227H161.727V80H148.934ZM221.785 15.2539V1.67969H235.066V15.2539H221.785ZM222.371 80V23.6523H234.578V80H222.371ZM250.301 80V0.214844H262.605V80H250.301ZM276.375 59.5898V23.6523H288.777V58.0273C288.777 66.8164 291.87 71.2109 298.055 71.2109C301.766 71.2109 304.663 69.6484 306.746 66.5234C308.829 63.3333 309.871 59.5573 309.871 55.1953V23.6523H322.176V80H310.262V73.457H310.164C309.253 75.4753 307.495 77.3633 304.891 79.1211C302.352 80.8789 299.161 81.7578 295.32 81.7578C293.042 81.7578 290.861 81.3997 288.777 80.6836C286.759 80.0326 284.773 78.9583 282.82 77.4609C280.867 75.8984 279.305 73.5872 278.133 70.5273C276.961 67.4674 276.375 63.8216 276.375 59.5898ZM336.727 80V0.214844H349.031V80H336.727ZM362.801 59.5898V23.6523H375.203V58.0273C375.203 66.8164 378.296 71.2109 384.48 71.2109C388.191 71.2109 391.089 69.6484 393.172 66.5234C395.255 63.3333 396.297 59.5573 396.297 55.1953V23.6523H408.602V80H396.688V73.457H396.59C395.678 75.4753 393.921 77.3633 391.316 79.1211C388.777 80.8789 385.587 81.7578 381.746 81.7578C379.467 81.7578 377.286 81.3997 375.203 80.6836C373.185 80.0326 371.199 78.9583 369.246 77.4609C367.293 75.8984 365.73 73.5872 364.559 70.5273C363.387 67.4674 362.801 63.8216 362.801 59.5898ZM422.762 80V0.214844H435.066V46.1133L455.086 23.6523H470.613L449.812 46.6016L471.883 80H457.43L441.805 55.293L435.066 62.7148V80H422.762Z" fill="#15AABF"/>
</svg>
