<svg width="82" height="82" viewBox="0 0 82 82" fill="none" xmlns="http://www.w3.org/2000/svg">
<path d="M43.8017 19.065L41 21.8735L38.1847 19.0582C34.7404 15.6143 30.0691 13.6798 25.1984 13.6801C20.3278 13.6804 15.6567 15.6156 12.2129 19.0599C8.76903 22.5042 6.83447 27.1755 6.8348 32.0461C6.83512 36.9168 8.77028 41.5878 12.2146 45.0317L39.1892 72.0063C39.6696 72.4861 40.3209 72.7557 41 72.7557C41.6791 72.7557 42.3304 72.4861 42.8108 72.0063L69.8093 45.0248C73.2496 41.5802 75.1816 36.9108 75.181 32.0425C75.1803 27.1742 73.2471 22.5053 69.8059 19.0616C68.0989 17.3534 66.0719 15.9983 63.841 15.0738C61.61 14.1493 59.2187 13.6734 56.8038 13.6734C54.3888 13.6734 51.9976 14.1493 49.7666 15.0738C47.5356 15.9983 45.5087 17.3534 43.8017 19.0616V19.065Z" fill="#15AABF"/>
</svg>
